<?xml version="1.0" encoding="UTF-8" standalone="no"?>
<!DOCTYPE svg PUBLIC "-//W3C//DTD SVG 1.1//EN"
 "http://www.w3.org/Graphics/SVG/1.1/DTD/svg11.dtd">
<!-- Generated by graphviz version 2.38.0 (20140413.2041)
 -->
<!-- Title: import Pages: 1 -->
<svg width="735pt" height="214pt"
 viewBox="0.00 0.00 735.00 213.50" xmlns="http://www.w3.org/2000/svg" xmlns:xlink="http://www.w3.org/1999/xlink">
<g id="graph0" class="graph" transform="scale(1 1) rotate(0) translate(4 209.5)">
<title>import</title>
<polygon fill="white" stroke="none" points="-4,4 -4,-209.5 731,-209.5 731,4 -4,4"/>
<g id="clust1" class="cluster"><title>cluster_process_list</title>
<polygon fill="lightgrey" stroke="lightgrey" points="127,-55.5 127,-197.5 577.5,-197.5 577.5,-55.5 127,-55.5"/>
<text text-anchor="middle" x="352.25" y="-182.3" font-family="Times New Roman,serif" font-size="14.00">Process List</text>
</g>
<!-- pipeline_inputs -->
<g id="node1" class="node"><title>pipeline_inputs</title>
<polygon fill="none" stroke="black" points="0,-71.5 0,-117.5 99,-117.5 99,-71.5 0,-71.5"/>
<text text-anchor="middle" x="49.5" y="-102.3" font-family="Times New Roman,serif" font-size="14.00">Pipeline Inputs</text>
<polyline fill="none" stroke="black" points="0,-94.5 99,-94.5 "/>
<text text-anchor="middle" x="49.5" y="-79.3" font-family="Times New Roman,serif" font-size="14.00">List&lt;Image&gt;</text>
</g>
<!-- map_input -->
<g id="node5" class="node"><title>map_input</title>
<polygon fill="none" stroke="black" points="135,-64.5 135,-100.5 373,-100.5 373,-64.5 135,-64.5"/>
<text text-anchor="middle" x="192.5" y="-78.8" font-family="Times New Roman,serif" font-size="14.00">in: List&lt;Inferred&gt;</text>
<polyline fill="none" stroke="black" points="250,-64.5 250,-100.5 "/>
<text text-anchor="middle" x="311.5" y="-78.8" font-family="Times New Roman,serif" font-size="14.00">out: List&lt;Inferred&gt;</text>
</g>
<!-- pipeline_inputs&#45;&gt;map_input -->
<g id="edge3" class="edge"><title>pipeline_inputs:out&#45;&gt;map_input:in</title>
<path fill="none" stroke="black" d="M99,-82.5C110.545,-82.5 115.664,-82.5 123.895,-82.5"/>
<polygon fill="black" stroke="black" points="124,-86.0001 134,-82.5 124,-79.0001 124,-86.0001"/>
</g>
<!-- pipeline_output -->
<g id="node2" class="node"><title>pipeline_output</title>
<polygon fill="none" stroke="black" points="624,-0.5 624,-46.5 727,-46.5 727,-0.5 624,-0.5"/>
<text text-anchor="middle" x="675.5" y="-31.3" font-family="Times New Roman,serif" font-size="14.00">Pipeline Output</text>
<polyline fill="none" stroke="black" points="624,-23.5 727,-23.5 "/>
<text text-anchor="middle" x="675.5" y="-8.3" font-family="Times New Roman,serif" font-size="14.00">Inferred</text>
</g>
<!-- spritesheet_gen -->
<g id="node3" class="node"><title>spritesheet_gen</title>
<polygon fill="none" stroke="black" points="409,-0.5 409,-46.5 588,-46.5 588,-0.5 409,-0.5"/>
<text text-anchor="middle" x="498.5" y="-31.3" font-family="Times New Roman,serif" font-size="14.00">Spritesheet Generator</text>
<polyline fill="none" stroke="black" points="409,-23.5 588,-23.5 "/>
<text text-anchor="middle" x="461" y="-8.3" font-family="Times New Roman,serif" font-size="14.00">in: List&lt;Image&gt;</text>
<polyline fill="none" stroke="black" points="513,-0.5 513,-23.5 "/>
<text text-anchor="middle" x="550.5" y="-8.3" font-family="Times New Roman,serif" font-size="14.00">out: Image</text>
</g>
<!-- spritesheet_gen&#45;&gt;pipeline_output -->
<g id="edge5" class="edge"><title>spritesheet_gen:out&#45;&gt;pipeline_output:in</title>
<path fill="none" stroke="black" d="M588,-11.5C600,-11.5 605.25,-11.5 613.875,-11.5"/>
<polygon fill="black" stroke="black" points="614,-15.0001 624,-11.5 614,-8.0001 614,-15.0001"/>
</g>
<!-- iter -->
<g id="node4" class="node"><title>iter</title>
<polygon fill="none" stroke="black" points="199,-119.5 199,-165.5 309,-165.5 309,-119.5 199,-119.5"/>
<text text-anchor="middle" x="254" y="-150.3" font-family="Times New Roman,serif" font-size="14.00">iter_in: Inferred</text>
<polyline fill="none" stroke="black" points="199,-142.5 309,-142.5 "/>
<text text-anchor="middle" x="254" y="-127.3" font-family="Times New Roman,serif" font-size="14.00">iter_out: Inferred</text>
</g>
<!-- linear_colorspace -->
<g id="node6" class="node"><title>linear_colorspace</title>
<polygon fill="none" stroke="black" points="427.5,-119.5 427.5,-165.5 569.5,-165.5 569.5,-119.5 427.5,-119.5"/>
<text text-anchor="middle" x="498.5" y="-150.3" font-family="Times New Roman,serif" font-size="14.00">Linear Colorspace</text>
<polyline fill="none" stroke="black" points="427.5,-142.5 569.5,-142.5 "/>
<text text-anchor="middle" x="461" y="-127.3" font-family="Times New Roman,serif" font-size="14.00">in: Image</text>
<polyline fill="none" stroke="black" points="494.5,-119.5 494.5,-142.5 "/>
<text text-anchor="middle" x="532" y="-127.3" font-family="Times New Roman,serif" font-size="14.00">out: Image</text>
</g>
<!-- iter&#45;&gt;linear_colorspace -->
<g id="edge1" class="edge"><title>iter:in&#45;&gt;linear_colorspace:in</title>
<path fill="none" stroke="black" d="M310,-154.5C359.355,-154.5 372.019,-133.582 416.501,-130.803"/>
<polygon fill="black" stroke="black" points="416.611,-134.302 426.5,-130.5 416.398,-127.305 416.611,-134.302"/>
</g>
<!-- map_input&#45;&gt;spritesheet_gen -->
<g id="edge4" class="edge"><title>map_input:out&#45;&gt;spritesheet_gen:in</title>
<path fill="none" stroke="black" d="M373,-82.5C404.234,-82.5 380.804,-27.1656 399.226,-14.1966"/>
<polygon fill="black" stroke="black" points="400.291,-17.5335 409,-11.5 398.429,-10.7856 400.291,-17.5335"/>
</g>
<!-- linear_colorspace&#45;&gt;iter -->
<g id="edge2" class="edge"><title>linear_colorspace:out&#45;&gt;iter:out</title>
<path fill="none" stroke="black" d="M532.5,-118.5C532.5,-22.8523 417.329,-123.155 320.234,-130.124"/>
<polygon fill="black" stroke="black" points="319.865,-126.635 310,-130.5 320.122,-133.63 319.865,-126.635"/>
</g>
</g>
</svg>
