<?xml version="1.0" encoding="UTF-8" standalone="no"?>
<!DOCTYPE svg PUBLIC "-//W3C//DTD SVG 1.1//EN"
 "http://www.w3.org/Graphics/SVG/1.1/DTD/svg11.dtd">
<!-- Generated by graphviz version 2.38.0 (20140413.2041)
 -->
<!-- Title: import Pages: 1 -->
<svg width="976pt" height="55pt"
 viewBox="0.00 0.00 976.00 55.00" xmlns="http://www.w3.org/2000/svg" xmlns:xlink="http://www.w3.org/1999/xlink">
<g id="graph0" class="graph" transform="scale(1 1) rotate(0) translate(4 51)">
<title>import</title>
<polygon fill="white" stroke="none" points="-4,4 -4,-51 972,-51 972,4 -4,4"/>
<!-- pipeline_inputs -->
<g id="node1" class="node"><title>pipeline_inputs</title>
<polygon fill="none" stroke="black" points="0,-0.5 0,-46.5 99,-46.5 99,-0.5 0,-0.5"/>
<text text-anchor="middle" x="49.5" y="-31.3" font-family="Times New Roman,serif" font-size="14.00">Pipeline Inputs</text>
<polyline fill="none" stroke="black" points="0,-23.5 99,-23.5 "/>
<text text-anchor="middle" x="49.5" y="-8.3" font-family="Times New Roman,serif" font-size="14.00">Mesh</text>
</g>
<!-- mesh_index -->
<g id="node3" class="node"><title>mesh_index</title>
<polygon fill="none" stroke="black" points="135,-0.5 135,-46.5 271,-46.5 271,-0.5 135,-0.5"/>
<text text-anchor="middle" x="203" y="-31.3" font-family="Times New Roman,serif" font-size="14.00">Index Mesh Vertices</text>
<polyline fill="none" stroke="black" points="135,-23.5 271,-23.5 "/>
<text text-anchor="middle" x="167" y="-8.3" font-family="Times New Roman,serif" font-size="14.00">in: Mesh</text>
<polyline fill="none" stroke="black" points="199,-0.5 199,-23.5 "/>
<text text-anchor="middle" x="235" y="-8.3" font-family="Times New Roman,serif" font-size="14.00">out: Mesh</text>
</g>
<!-- pipeline_inputs&#45;&gt;mesh_index -->
<g id="edge1" class="edge"><title>pipeline_inputs:out&#45;&gt;mesh_index:in</title>
<path fill="none" stroke="black" d="M99,-11.5C111,-11.5 116.25,-11.5 124.875,-11.5"/>
<polygon fill="black" stroke="black" points="125,-15.0001 135,-11.5 125,-8.0001 125,-15.0001"/>
</g>
<!-- pipeline_output -->
<g id="node2" class="node"><title>pipeline_output</title>
<polygon fill="none" stroke="black" points="865,-0.5 865,-46.5 968,-46.5 968,-0.5 865,-0.5"/>
<text text-anchor="middle" x="916.5" y="-31.3" font-family="Times New Roman,serif" font-size="14.00">Pipeline Output</text>
<polyline fill="none" stroke="black" points="865,-23.5 968,-23.5 "/>
<text text-anchor="middle" x="916.5" y="-8.3" font-family="Times New Roman,serif" font-size="14.00">Inferred</text>
</g>
<!-- vertex_cache_opt -->
<g id="node4" class="node"><title>vertex_cache_opt</title>
<polygon fill="none" stroke="black" points="307,-0.5 307,-46.5 474,-46.5 474,-0.5 307,-0.5"/>
<text text-anchor="middle" x="390.5" y="-31.3" font-family="Times New Roman,serif" font-size="14.00">Vertex Cache Optimization</text>
<polyline fill="none" stroke="black" points="307,-23.5 474,-23.5 "/>
<text text-anchor="middle" x="346.5" y="-8.3" font-family="Times New Roman,serif" font-size="14.00">in: Mesh</text>
<polyline fill="none" stroke="black" points="386,-0.5 386,-23.5 "/>
<text text-anchor="middle" x="430" y="-8.3" font-family="Times New Roman,serif" font-size="14.00">out: Mesh</text>
</g>
<!-- mesh_index&#45;&gt;vertex_cache_opt -->
<g id="edge2" class="edge"><title>mesh_index:out&#45;&gt;vertex_cache_opt:in</title>
<path fill="none" stroke="black" d="M271,-11.5C283,-11.5 288.25,-11.5 296.875,-11.5"/>
<polygon fill="black" stroke="black" points="297,-15.0001 307,-11.5 297,-8.0001 297,-15.0001"/>
</g>
<!-- overdraw_optimization -->
<g id="node5" class="node"><title>overdraw_optimization</title>
<polygon fill="none" stroke="black" points="510,-0.5 510,-46.5 657,-46.5 657,-0.5 510,-0.5"/>
<text text-anchor="middle" x="583.5" y="-31.3" font-family="Times New Roman,serif" font-size="14.00">Overdraw Optimization</text>
<polyline fill="none" stroke="black" points="510,-23.5 657,-23.5 "/>
<text text-anchor="middle" x="544.5" y="-8.3" font-family="Times New Roman,serif" font-size="14.00">in: Mesh</text>
<polyline fill="none" stroke="black" points="579,-0.5 579,-23.5 "/>
<text text-anchor="middle" x="618" y="-8.3" font-family="Times New Roman,serif" font-size="14.00">out: Mesh</text>
</g>
<!-- vertex_cache_opt&#45;&gt;overdraw_optimization -->
<g id="edge3" class="edge"><title>vertex_cache_opt:out&#45;&gt;overdraw_optimization:in</title>
<path fill="none" stroke="black" d="M474,-11.5C486,-11.5 491.25,-11.5 499.875,-11.5"/>
<polygon fill="black" stroke="black" points="500,-15.0001 510,-11.5 500,-8.0001 500,-15.0001"/>
</g>
<!-- vertex_quantization -->
<g id="node6" class="node"><title>vertex_quantization</title>
<polygon fill="none" stroke="black" points="693,-0.5 693,-46.5 829,-46.5 829,-0.5 693,-0.5"/>
<text text-anchor="middle" x="761" y="-31.3" font-family="Times New Roman,serif" font-size="14.00">Vertex Quantization</text>
<polyline fill="none" stroke="black" points="693,-23.5 829,-23.5 "/>
<text text-anchor="middle" x="725" y="-8.3" font-family="Times New Roman,serif" font-size="14.00">in: Mesh</text>
<polyline fill="none" stroke="black" points="757,-0.5 757,-23.5 "/>
<text text-anchor="middle" x="793" y="-8.3" font-family="Times New Roman,serif" font-size="14.00">out: Mesh</text>
</g>
<!-- overdraw_optimization&#45;&gt;vertex_quantization -->
<g id="edge4" class="edge"><title>overdraw_optimization:out&#45;&gt;vertex_quantization:in</title>
<path fill="none" stroke="black" d="M657,-11.5C669,-11.5 674.25,-11.5 682.875,-11.5"/>
<polygon fill="black" stroke="black" points="683,-15.0001 693,-11.5 683,-8.0001 683,-15.0001"/>
</g>
<!-- vertex_quantization&#45;&gt;pipeline_output -->
<g id="edge5" class="edge"><title>vertex_quantization:out&#45;&gt;pipeline_output:in</title>
<path fill="none" stroke="black" d="M829,-11.5C841,-11.5 846.25,-11.5 854.875,-11.5"/>
<polygon fill="black" stroke="black" points="855,-15.0001 865,-11.5 855,-8.0001 855,-15.0001"/>
</g>
</g>
</svg>
