<?xml version="1.0" encoding="UTF-8" standalone="no"?>
<!DOCTYPE svg PUBLIC "-//W3C//DTD SVG 1.1//EN"
 "http://www.w3.org/Graphics/SVG/1.1/DTD/svg11.dtd">
<!-- Generated by graphviz version 2.38.0 (20140413.2041)
 -->
<!-- Title: import Pages: 1 -->
<svg width="424pt" height="55pt"
 viewBox="0.00 0.00 424.00 55.00" xmlns="http://www.w3.org/2000/svg" xmlns:xlink="http://www.w3.org/1999/xlink">
<g id="graph0" class="graph" transform="scale(1 1) rotate(0) translate(4 51)">
<title>import</title>
<polygon fill="white" stroke="none" points="-4,4 -4,-51 420,-51 420,4 -4,4"/>
<!-- pipeline_inputs -->
<g id="node1" class="node"><title>pipeline_inputs</title>
<polygon fill="none" stroke="black" points="0,-0.5 0,-46.5 99,-46.5 99,-0.5 0,-0.5"/>
<text text-anchor="middle" x="49.5" y="-31.3" font-family="Times New Roman,serif" font-size="14.00">Pipeline Inputs</text>
<polyline fill="none" stroke="black" points="0,-23.5 99,-23.5 "/>
<text text-anchor="middle" x="49.5" y="-8.3" font-family="Times New Roman,serif" font-size="14.00">Image</text>
</g>
<!-- linear_colorspace -->
<g id="node3" class="node"><title>linear_colorspace</title>
<polygon fill="none" stroke="black" points="135,-0.5 135,-46.5 277,-46.5 277,-0.5 135,-0.5"/>
<text text-anchor="middle" x="206" y="-31.3" font-family="Times New Roman,serif" font-size="14.00">Linear Colorspace</text>
<polyline fill="none" stroke="black" points="135,-23.5 277,-23.5 "/>
<text text-anchor="middle" x="168.5" y="-8.3" font-family="Times New Roman,serif" font-size="14.00">in: Image</text>
<polyline fill="none" stroke="black" points="202,-0.5 202,-23.5 "/>
<text text-anchor="middle" x="239.5" y="-8.3" font-family="Times New Roman,serif" font-size="14.00">out: Image</text>
</g>
<!-- pipeline_inputs&#45;&gt;linear_colorspace -->
<g id="edge1" class="edge"><title>pipeline_inputs:out&#45;&gt;linear_colorspace:in</title>
<path fill="none" stroke="black" d="M99,-11.5C111,-11.5 116.25,-11.5 124.875,-11.5"/>
<polygon fill="black" stroke="black" points="125,-15.0001 135,-11.5 125,-8.0001 125,-15.0001"/>
</g>
<!-- pipeline_output -->
<g id="node2" class="node"><title>pipeline_output</title>
<polygon fill="none" stroke="black" points="313,-0.5 313,-46.5 416,-46.5 416,-0.5 313,-0.5"/>
<text text-anchor="middle" x="364.5" y="-31.3" font-family="Times New Roman,serif" font-size="14.00">Pipeline Output</text>
<polyline fill="none" stroke="black" points="313,-23.5 416,-23.5 "/>
<text text-anchor="middle" x="364.5" y="-8.3" font-family="Times New Roman,serif" font-size="14.00">Inferred</text>
</g>
<!-- linear_colorspace&#45;&gt;pipeline_output -->
<g id="edge2" class="edge"><title>linear_colorspace:out&#45;&gt;pipeline_output:in</title>
<path fill="none" stroke="black" d="M277,-11.5C289,-11.5 294.25,-11.5 302.875,-11.5"/>
<polygon fill="black" stroke="black" points="303,-15.0001 313,-11.5 303,-8.0001 303,-15.0001"/>
</g>
</g>
</svg>
