<?xml version="1.0" encoding="UTF-8" standalone="no"?>
<!DOCTYPE svg PUBLIC "-//W3C//DTD SVG 1.1//EN"
 "http://www.w3.org/Graphics/SVG/1.1/DTD/svg11.dtd">
<!-- Generated by graphviz version 2.38.0 (20140413.2041)
 -->
<!-- Title: import Pages: 1 -->
<svg width="804pt" height="236pt"
 viewBox="0.00 0.00 804.00 236.00" xmlns="http://www.w3.org/2000/svg" xmlns:xlink="http://www.w3.org/1999/xlink">
<g id="graph0" class="graph" transform="scale(1 1) rotate(0) translate(4 232)">
<title>import</title>
<polygon fill="white" stroke="none" points="-4,4 -4,-232 800,-232 800,4 -4,4"/>
<g id="clust1" class="cluster"><title>cluster_process_list</title>
<polygon fill="lightgrey" stroke="lightgrey" points="127,-78 127,-220 612,-220 612,-78 127,-78"/>
<text text-anchor="middle" x="369.5" y="-204.8" font-family="Times New Roman,serif" font-size="14.00">Process List</text>
</g>
<!-- pipeline_inputs -->
<g id="node1" class="node"><title>pipeline_inputs</title>
<polygon fill="none" stroke="black" points="0,-94 0,-140 99,-140 99,-94 0,-94"/>
<text text-anchor="middle" x="49.5" y="-124.8" font-family="Times New Roman,serif" font-size="14.00">Pipeline Inputs</text>
<polyline fill="none" stroke="black" points="0,-117 99,-117 "/>
<text text-anchor="middle" x="49.5" y="-101.8" font-family="Times New Roman,serif" font-size="14.00">List&lt;Image&gt;</text>
</g>
<!-- map_input -->
<g id="node6" class="node"><title>map_input</title>
<polygon fill="none" stroke="black" points="135,-87 135,-123 373,-123 373,-87 135,-87"/>
<text text-anchor="middle" x="192.5" y="-101.3" font-family="Times New Roman,serif" font-size="14.00">in: List&lt;Inferred&gt;</text>
<polyline fill="none" stroke="black" points="250,-87 250,-123 "/>
<text text-anchor="middle" x="311.5" y="-101.3" font-family="Times New Roman,serif" font-size="14.00">out: List&lt;Inferred&gt;</text>
</g>
<!-- pipeline_inputs&#45;&gt;map_input -->
<g id="edge3" class="edge"><title>pipeline_inputs:out&#45;&gt;map_input:in</title>
<path fill="none" stroke="black" d="M99,-105C110.545,-105 115.664,-105 123.895,-105"/>
<polygon fill="black" stroke="black" points="124,-108.5 134,-105 124,-101.5 124,-108.5"/>
</g>
<!-- pipeline_output -->
<g id="node2" class="node"><title>pipeline_output</title>
<polygon fill="none" stroke="black" points="693,-13 693,-59 796,-59 796,-13 693,-13"/>
<text text-anchor="middle" x="744.5" y="-43.8" font-family="Times New Roman,serif" font-size="14.00">Pipeline Output</text>
<polyline fill="none" stroke="black" points="693,-36 796,-36 "/>
<text text-anchor="middle" x="744.5" y="-20.8" font-family="Times New Roman,serif" font-size="14.00">Inferred</text>
</g>
<!-- new_asset_uuid -->
<g id="node3" class="node"><title>new_asset_uuid</title>
<polygon fill="none" stroke="black" points="192.5,-17 192.5,-53 315.5,-53 315.5,-17 192.5,-17"/>
<text text-anchor="middle" x="254" y="-31.3" font-family="Times New Roman,serif" font-size="14.00">Generated AssetID</text>
</g>
<!-- spritesheet_gen -->
<g id="node4" class="node"><title>spritesheet_gen</title>
<polygon fill="none" stroke="black" points="409,-0.5 409,-69.5 657,-69.5 657,-0.5 409,-0.5"/>
<text text-anchor="middle" x="533" y="-54.3" font-family="Times New Roman,serif" font-size="14.00">Spritesheet Generator</text>
<polyline fill="none" stroke="black" points="409,-46.5 657,-46.5 "/>
<text text-anchor="middle" x="461" y="-31.3" font-family="Times New Roman,serif" font-size="14.00">id: AssetUUID</text>
<polyline fill="none" stroke="black" points="409,-23.5 513,-23.5 "/>
<text text-anchor="middle" x="461" y="-8.3" font-family="Times New Roman,serif" font-size="14.00">in: List&lt;Image&gt;</text>
<polyline fill="none" stroke="black" points="513,-0.5 513,-46.5 "/>
<text text-anchor="middle" x="585" y="-31.3" font-family="Times New Roman,serif" font-size="14.00">spritesheet: Spritesheet</text>
<polyline fill="none" stroke="black" points="513,-23.5 657,-23.5 "/>
<text text-anchor="middle" x="585" y="-8.3" font-family="Times New Roman,serif" font-size="14.00">sprites: List&lt;Sprite&gt;</text>
</g>
<!-- new_asset_uuid&#45;&gt;spritesheet_gen -->
<g id="edge5" class="edge"><title>new_asset_uuid&#45;&gt;spritesheet_gen:id_in</title>
<path fill="none" stroke="black" d="M315.708,-35C340.954,-35 370.842,-35 398.8,-35"/>
<polygon fill="black" stroke="black" points="399,-38.5001 409,-35 399,-31.5001 399,-38.5001"/>
</g>
<!-- spritesheet_gen&#45;&gt;pipeline_output -->
<g id="edge6" class="edge"><title>spritesheet_gen:out&#45;&gt;pipeline_output:in</title>
<path fill="none" stroke="black" d="M657,-35C669.678,-35 674.207,-28.6829 682.938,-25.6231"/>
<polygon fill="black" stroke="black" points="683.685,-29.048 693,-24 682.57,-22.1373 683.685,-29.048"/>
</g>
<!-- spritesheet_gen&#45;&gt;pipeline_output -->
<g id="edge7" class="edge"><title>spritesheet_gen:sprites_out&#45;&gt;pipeline_output:in</title>
<path fill="none" stroke="black" d="M657,-12C669.781,-12 674.179,-18.8914 682.9,-22.2294"/>
<polygon fill="black" stroke="black" points="682.546,-25.7206 693,-24 683.755,-18.8257 682.546,-25.7206"/>
</g>
<!-- iter -->
<g id="node5" class="node"><title>iter</title>
<polygon fill="none" stroke="black" points="199,-142 199,-188 309,-188 309,-142 199,-142"/>
<text text-anchor="middle" x="254" y="-172.8" font-family="Times New Roman,serif" font-size="14.00">iter_in: Inferred</text>
<polyline fill="none" stroke="black" points="199,-165 309,-165 "/>
<text text-anchor="middle" x="254" y="-149.8" font-family="Times New Roman,serif" font-size="14.00">iter_out: Inferred</text>
</g>
<!-- linear_colorspace -->
<g id="node7" class="node"><title>linear_colorspace</title>
<polygon fill="none" stroke="black" points="462,-142 462,-188 604,-188 604,-142 462,-142"/>
<text text-anchor="middle" x="533" y="-172.8" font-family="Times New Roman,serif" font-size="14.00">Linear Colorspace</text>
<polyline fill="none" stroke="black" points="462,-165 604,-165 "/>
<text text-anchor="middle" x="495.5" y="-149.8" font-family="Times New Roman,serif" font-size="14.00">in: Image</text>
<polyline fill="none" stroke="black" points="529,-142 529,-165 "/>
<text text-anchor="middle" x="566.5" y="-149.8" font-family="Times New Roman,serif" font-size="14.00">out: Image</text>
</g>
<!-- iter&#45;&gt;linear_colorspace -->
<g id="edge1" class="edge"><title>iter:in&#45;&gt;linear_colorspace:in</title>
<path fill="none" stroke="black" d="M310,-177C374.37,-177 391.308,-155.465 450.675,-153.193"/>
<polygon fill="black" stroke="black" points="451.067,-156.687 461,-153 450.936,-149.688 451.067,-156.687"/>
</g>
<!-- map_input&#45;&gt;spritesheet_gen -->
<g id="edge4" class="edge"><title>map_input:out&#45;&gt;spritesheet_gen:in</title>
<path fill="none" stroke="black" d="M373,-105C413.167,-105 373.696,-28.6201 398.931,-14.2989"/>
<polygon fill="black" stroke="black" points="400.03,-17.6382 409,-12 398.472,-10.8138 400.03,-17.6382"/>
</g>
<!-- linear_colorspace&#45;&gt;iter -->
<g id="edge2" class="edge"><title>linear_colorspace:out&#45;&gt;iter:out</title>
<path fill="none" stroke="black" d="M567,-141C567,-30.0033 432.583,-145.803 320.119,-152.684"/>
<polygon fill="black" stroke="black" points="319.886,-149.189 310,-153 320.104,-156.186 319.886,-149.189"/>
</g>
</g>
</svg>
