<?xml version="1.0" encoding="UTF-8" standalone="no"?>
<!DOCTYPE svg PUBLIC "-//W3C//DTD SVG 1.1//EN"
 "http://www.w3.org/Graphics/SVG/1.1/DTD/svg11.dtd">
<!-- Generated by graphviz version 2.38.0 (20140413.2041)
 -->
<!-- Title: import Pages: 1 -->
<svg width="882pt" height="191pt"
 viewBox="0.00 0.00 882.00 190.50" xmlns="http://www.w3.org/2000/svg" xmlns:xlink="http://www.w3.org/1999/xlink">
<g id="graph0" class="graph" transform="scale(1 1) rotate(0) translate(4 186.5)">
<title>import</title>
<polygon fill="white" stroke="none" points="-4,4 -4,-186.5 878,-186.5 878,4 -4,4"/>
<!-- pipeline_inputs -->
<g id="node1" class="node"><title>pipeline_inputs</title>
<polygon fill="none" stroke="black" points="0,-0.5 0,-115.5 99,-115.5 99,-0.5 0,-0.5"/>
<text text-anchor="middle" x="49.5" y="-100.3" font-family="Times New Roman,serif" font-size="14.00">Pipeline Inputs</text>
<polyline fill="none" stroke="black" points="0,-92.5 99,-92.5 "/>
<text text-anchor="middle" x="49.5" y="-77.3" font-family="Times New Roman,serif" font-size="14.00">r: Image</text>
<polyline fill="none" stroke="black" points="0,-69.5 99,-69.5 "/>
<text text-anchor="middle" x="49.5" y="-54.3" font-family="Times New Roman,serif" font-size="14.00">g: Image</text>
<polyline fill="none" stroke="black" points="0,-46.5 99,-46.5 "/>
<text text-anchor="middle" x="49.5" y="-31.3" font-family="Times New Roman,serif" font-size="14.00">b: Image</text>
<polyline fill="none" stroke="black" points="0,-23.5 99,-23.5 "/>
<text text-anchor="middle" x="49.5" y="-8.3" font-family="Times New Roman,serif" font-size="14.00">a: Image</text>
</g>
<!-- image_combine -->
<g id="node3" class="node"><title>image_combine</title>
<polygon fill="none" stroke="black" points="338,-0.5 338,-115.5 478,-115.5 478,-0.5 338,-0.5"/>
<text text-anchor="middle" x="408" y="-100.3" font-family="Times New Roman,serif" font-size="14.00">Image From Channels</text>
<polyline fill="none" stroke="black" points="338,-92.5 478,-92.5 "/>
<text text-anchor="middle" x="370.5" y="-77.3" font-family="Times New Roman,serif" font-size="14.00">r: Image</text>
<polyline fill="none" stroke="black" points="338,-69.5 403,-69.5 "/>
<text text-anchor="middle" x="370.5" y="-54.3" font-family="Times New Roman,serif" font-size="14.00">g: Image</text>
<polyline fill="none" stroke="black" points="338,-46.5 403,-46.5 "/>
<text text-anchor="middle" x="370.5" y="-31.3" font-family="Times New Roman,serif" font-size="14.00">b: Image</text>
<polyline fill="none" stroke="black" points="338,-23.5 403,-23.5 "/>
<text text-anchor="middle" x="370.5" y="-8.3" font-family="Times New Roman,serif" font-size="14.00">a: Image</text>
<polyline fill="none" stroke="black" points="403,-0.5 403,-92.5 "/>
<text text-anchor="middle" x="440.5" y="-42.8" font-family="Times New Roman,serif" font-size="14.00">out: Image</text>
</g>
<!-- pipeline_inputs&#45;&gt;image_combine -->
<g id="edge5" class="edge"><title>pipeline_inputs:out_b&#45;&gt;image_combine:in_b</title>
<path fill="none" stroke="black" d="M99,-35C201.799,-35 229.983,-35 327.973,-35"/>
<polygon fill="black" stroke="black" points="328,-38.5001 338,-35 328,-31.5001 328,-38.5001"/>
</g>
<!-- pipeline_inputs&#45;&gt;image_combine -->
<g id="edge6" class="edge"><title>pipeline_inputs:out_a&#45;&gt;image_combine:in_a</title>
<path fill="none" stroke="black" d="M99,-12C201.799,-12 229.983,-12 327.973,-12"/>
<polygon fill="black" stroke="black" points="328,-15.5001 338,-12 328,-8.5001 328,-15.5001"/>
</g>
<!-- channel_select -->
<g id="node4" class="node"><title>channel_select</title>
<polygon fill="none" stroke="black" points="135,-55.5 135,-116.5 302,-116.5 302,-55.5 135,-55.5"/>
<text text-anchor="start" x="143" y="-101.3" font-family="Times New Roman,serif" font-size="14.00">Channel Select</text>
<text text-anchor="middle" x="218.5" y="-86.3" font-family="Times New Roman,serif" font-size="14.00">constant input: a [rgba/0&#45;9]</text>
<polyline fill="none" stroke="black" points="135,-78.5 302,-78.5 "/>
<text text-anchor="middle" x="174.5" y="-63.3" font-family="Times New Roman,serif" font-size="14.00">in: Image</text>
<polyline fill="none" stroke="black" points="214,-55.5 214,-78.5 "/>
<text text-anchor="middle" x="258" y="-63.3" font-family="Times New Roman,serif" font-size="14.00">out: Image</text>
</g>
<!-- pipeline_inputs&#45;&gt;channel_select -->
<g id="edge3" class="edge"><title>pipeline_inputs:out_g&#45;&gt;channel_select:in</title>
<path fill="none" stroke="black" d="M99,-58C111.498,-58 116.257,-63.1685 125.006,-65.672"/>
<polygon fill="black" stroke="black" points="124.626,-69.1522 135,-67 125.548,-62.2132 124.626,-69.1522"/>
</g>
<!-- grayscale -->
<g id="node5" class="node"><title>grayscale</title>
<polygon fill="none" stroke="black" points="147.5,-136 147.5,-182 289.5,-182 289.5,-136 147.5,-136"/>
<text text-anchor="middle" x="218.5" y="-166.8" font-family="Times New Roman,serif" font-size="14.00">Grayscale</text>
<polyline fill="none" stroke="black" points="147.5,-159 289.5,-159 "/>
<text text-anchor="middle" x="181" y="-143.8" font-family="Times New Roman,serif" font-size="14.00">in: Image</text>
<polyline fill="none" stroke="black" points="214.5,-136 214.5,-159 "/>
<text text-anchor="middle" x="252" y="-143.8" font-family="Times New Roman,serif" font-size="14.00">out: Image</text>
</g>
<!-- pipeline_inputs&#45;&gt;grayscale -->
<g id="edge1" class="edge"><title>pipeline_inputs:out_r&#45;&gt;grayscale:in</title>
<path fill="none" stroke="black" d="M99,-81C131.187,-81 115.052,-133.352 136.668,-144.804"/>
<polygon fill="black" stroke="black" points="135.978,-148.236 146.5,-147 137.503,-141.404 135.978,-148.236"/>
</g>
<!-- pipeline_output -->
<g id="node2" class="node"><title>pipeline_output</title>
<polygon fill="none" stroke="black" points="692,-34.5 692,-95.5 874,-95.5 874,-34.5 692,-34.5"/>
<text text-anchor="middle" x="783" y="-80.3" font-family="Times New Roman,serif" font-size="14.00">Pipeline Output</text>
<text text-anchor="middle" x="783" y="-65.3" font-family="Times New Roman,serif" font-size="14.00">AMBIGUOUS ASSETUUID</text>
<polyline fill="none" stroke="black" points="692,-57.5 874,-57.5 "/>
<text text-anchor="middle" x="783" y="-42.3" font-family="Times New Roman,serif" font-size="14.00">Inferred</text>
</g>
<!-- linear_colorspace -->
<g id="node6" class="node"><title>linear_colorspace</title>
<polygon fill="none" stroke="black" points="514,-35 514,-81 656,-81 656,-35 514,-35"/>
<text text-anchor="middle" x="585" y="-65.8" font-family="Times New Roman,serif" font-size="14.00">Linear Colorspace</text>
<polyline fill="none" stroke="black" points="514,-58 656,-58 "/>
<text text-anchor="middle" x="547.5" y="-42.8" font-family="Times New Roman,serif" font-size="14.00">in: Image</text>
<polyline fill="none" stroke="black" points="581,-35 581,-58 "/>
<text text-anchor="middle" x="618.5" y="-42.8" font-family="Times New Roman,serif" font-size="14.00">out: Image</text>
</g>
<!-- image_combine&#45;&gt;linear_colorspace -->
<g id="edge7" class="edge"><title>image_combine:out&#45;&gt;linear_colorspace:in</title>
<path fill="none" stroke="black" d="M478,-46C490,-46 495.25,-46 503.875,-46"/>
<polygon fill="black" stroke="black" points="504,-49.5001 514,-46 504,-42.5001 504,-49.5001"/>
</g>
<!-- channel_select&#45;&gt;image_combine -->
<g id="edge4" class="edge"><title>channel_select:out&#45;&gt;image_combine:in_g</title>
<path fill="none" stroke="black" d="M302,-67C314.498,-67 319.257,-61.8315 328.006,-59.328"/>
<polygon fill="black" stroke="black" points="328.548,-62.7868 338,-58 327.626,-55.8478 328.548,-62.7868"/>
</g>
<!-- grayscale&#45;&gt;image_combine -->
<g id="edge2" class="edge"><title>grayscale:out&#45;&gt;image_combine:in_r</title>
<path fill="none" stroke="black" d="M290.5,-147C322.687,-147 306.552,-94.6479 328.168,-83.1959"/>
<polygon fill="black" stroke="black" points="329.003,-86.5958 338,-81 327.478,-79.7641 329.003,-86.5958"/>
</g>
<!-- linear_colorspace&#45;&gt;pipeline_output -->
<g id="edge8" class="edge"><title>linear_colorspace:out&#45;&gt;pipeline_output:in</title>
<path fill="none" stroke="black" d="M656,-46C668,-46 673.25,-46 681.875,-46"/>
<polygon fill="black" stroke="black" points="682,-49.5001 692,-46 682,-42.5001 682,-49.5001"/>
</g>
</g>
</svg>
