<?xml version="1.0" encoding="UTF-8" standalone="no"?>
<!DOCTYPE svg PUBLIC "-//W3C//DTD SVG 1.1//EN"
 "http://www.w3.org/Graphics/SVG/1.1/DTD/svg11.dtd">
<!-- Generated by graphviz version 2.38.0 (20140413.2041)
 -->
<!-- Title: import Pages: 1 -->
<svg width="233pt" height="440pt"
 viewBox="0.00 0.00 233.19 440.00" xmlns="http://www.w3.org/2000/svg" xmlns:xlink="http://www.w3.org/1999/xlink">
<g id="graph0" class="graph" transform="scale(1 1) rotate(0) translate(4 436)">
<title>import</title>
<polygon fill="white" stroke="none" points="-4,4 -4,-436 229.19,-436 229.19,4 -4,4"/>
<!-- intermediate -->
<g id="node1" class="node"><title>intermediate</title>
<polygon fill="none" stroke="black" points="45.5438,-395.5 45.5438,-431.5 209.544,-431.5 209.544,-395.5 45.5438,-395.5"/>
<text text-anchor="middle" x="127.544" y="-409.8" font-family="Times New Roman,serif" font-size="14.00">Asset Intermediate Format</text>
</g>
<!-- pipeline -->
<g id="node2" class="node"><title>pipeline</title>
<ellipse fill="none" stroke="black" cx="127.544" cy="-341" rx="81.4863" ry="18"/>
<text text-anchor="middle" x="127.544" y="-337.3" font-family="Times New Roman,serif" font-size="14.00">Processing Pipeline</text>
</g>
<!-- intermediate&#45;&gt;pipeline -->
<g id="edge1" class="edge"><title>intermediate&#45;&gt;pipeline</title>
<path fill="none" stroke="black" d="M127.544,-395.434C127.544,-387.67 127.544,-378.284 127.544,-369.56"/>
<polygon fill="black" stroke="black" points="131.044,-369.399 127.544,-359.399 124.044,-369.399 131.044,-369.399"/>
</g>
<!-- build_artifact -->
<g id="node3" class="node"><title>build_artifact</title>
<polygon fill="none" stroke="black" points="64.0438,-217.5 64.0438,-286.5 191.044,-286.5 191.044,-217.5 64.0438,-217.5"/>
<text text-anchor="middle" x="127.544" y="-271.3" font-family="Times New Roman,serif" font-size="14.00">Asset Build Artifact</text>
<polyline fill="none" stroke="black" points="64.0438,-263.5 191.044,-263.5 "/>
<text text-anchor="middle" x="127.544" y="-248.3" font-family="Times New Roman,serif" font-size="14.00">Engine TypeUUID</text>
<polyline fill="none" stroke="black" points="64.0438,-240.5 191.044,-240.5 "/>
<text text-anchor="middle" x="127.544" y="-225.3" font-family="Times New Roman,serif" font-size="14.00">Data</text>
</g>
<!-- pipeline&#45;&gt;build_artifact -->
<g id="edge2" class="edge"><title>pipeline&#45;&gt;build_artifact</title>
<path fill="none" stroke="black" d="M127.544,-322.812C127.544,-315.328 127.544,-306.18 127.544,-297.002"/>
<polygon fill="black" stroke="black" points="131.044,-296.714 127.544,-286.714 124.044,-296.714 131.044,-296.714"/>
</g>
<!-- build_cache -->
<g id="node5" class="node"><title>build_cache</title>
<ellipse fill="none" stroke="black" cx="70.5438" cy="-163" rx="55.4913" ry="18"/>
<text text-anchor="middle" x="70.5438" y="-159.3" font-family="Times New Roman,serif" font-size="14.00">Build Cache</text>
</g>
<!-- build_artifact&#45;&gt;build_cache -->
<g id="edge6" class="edge"><title>build_artifact&#45;&gt;build_cache</title>
<path fill="none" stroke="black" d="M105.343,-217.114C99.3109,-207.908 92.8826,-198.096 87.2135,-189.443"/>
<polygon fill="black" stroke="black" points="90.037,-187.366 81.6291,-180.92 84.1818,-191.202 90.037,-187.366"/>
</g>
<!-- packing -->
<g id="node7" class="node"><title>packing</title>
<ellipse fill="none" stroke="black" cx="185.544" cy="-163" rx="39.7935" ry="18"/>
<text text-anchor="middle" x="185.544" y="-159.3" font-family="Times New Roman,serif" font-size="14.00">Packing</text>
</g>
<!-- build_artifact&#45;&gt;packing -->
<g id="edge3" class="edge"><title>build_artifact&#45;&gt;packing</title>
<path fill="none" stroke="black" d="M150.134,-217.114C156.432,-207.668 163.155,-197.584 169.031,-188.769"/>
<polygon fill="black" stroke="black" points="171.944,-190.709 174.579,-180.447 166.12,-186.826 171.944,-190.709"/>
</g>
<!-- pack_file -->
<g id="node4" class="node"><title>pack_file</title>
<polygon fill="none" stroke="black" points="157.044,-72.5 157.044,-108.5 218.044,-108.5 218.044,-72.5 157.044,-72.5"/>
<text text-anchor="middle" x="187.544" y="-86.8" font-family="Times New Roman,serif" font-size="14.00">Packfile</text>
</g>
<!-- engine -->
<g id="node6" class="node"><title>engine</title>
<ellipse fill="none" stroke="black" cx="128.544" cy="-18" rx="35.194" ry="18"/>
<text text-anchor="middle" x="128.544" y="-14.3" font-family="Times New Roman,serif" font-size="14.00">Engine</text>
</g>
<!-- pack_file&#45;&gt;engine -->
<g id="edge5" class="edge"><title>pack_file&#45;&gt;engine</title>
<path fill="none" stroke="black" d="M173.262,-72.4339C165.801,-63.5196 156.553,-52.4687 148.406,-42.7341"/>
<polygon fill="black" stroke="black" points="150.988,-40.3651 141.886,-34.9425 145.62,-44.8576 150.988,-40.3651"/>
</g>
<!-- asset_hub_api -->
<g id="node8" class="node"><title>asset_hub_api</title>
<ellipse fill="none" stroke="black" cx="69.5438" cy="-90.5" rx="69.5877" ry="18"/>
<text text-anchor="middle" x="69.5438" y="-86.8" font-family="Times New Roman,serif" font-size="14.00">Asset Hub RPC</text>
</g>
<!-- build_cache&#45;&gt;asset_hub_api -->
<g id="edge7" class="edge"><title>build_cache&#45;&gt;asset_hub_api</title>
<path fill="none" stroke="black" d="M70.3018,-144.934C70.1916,-137.17 70.0585,-127.784 69.9347,-119.06"/>
<polygon fill="black" stroke="black" points="73.4322,-118.848 69.7906,-108.899 66.4329,-118.947 73.4322,-118.848"/>
</g>
<!-- packing&#45;&gt;pack_file -->
<g id="edge4" class="edge"><title>packing&#45;&gt;pack_file</title>
<path fill="none" stroke="black" d="M186.028,-144.934C186.248,-137.17 186.514,-127.784 186.762,-119.06"/>
<polygon fill="black" stroke="black" points="190.265,-118.994 187.05,-108.899 183.268,-118.795 190.265,-118.994"/>
</g>
<!-- asset_hub_api&#45;&gt;engine -->
<g id="edge8" class="edge"><title>asset_hub_api&#45;&gt;engine</title>
<path fill="none" stroke="black" d="M83.526,-72.7925C90.9802,-63.8853 100.282,-52.77 108.493,-42.9593"/>
<polygon fill="black" stroke="black" points="111.334,-45.0174 115.068,-35.1023 105.966,-40.5249 111.334,-45.0174"/>
</g>
</g>
</svg>
