<?xml version="1.0" encoding="UTF-8" standalone="no"?>
<!DOCTYPE svg PUBLIC "-//W3C//DTD SVG 1.1//EN"
 "http://www.w3.org/Graphics/SVG/1.1/DTD/svg11.dtd">
<!-- Generated by graphviz version 2.38.0 (20140413.2041)
 -->
<!-- Title: import Pages: 1 -->
<svg width="220pt" height="490pt"
 viewBox="0.00 0.00 220.00 489.74" xmlns="http://www.w3.org/2000/svg" xmlns:xlink="http://www.w3.org/1999/xlink">
<g id="graph0" class="graph" transform="scale(1 1) rotate(0) translate(4 485.74)">
<title>import</title>
<polygon fill="white" stroke="none" points="-4,4 -4,-485.74 216,-485.74 216,4 -4,4"/>
<!-- source_file -->
<g id="node1" class="node"><title>source_file</title>
<text text-anchor="middle" x="64" y="-460.04" font-family="Times New Roman,serif" font-size="14.00">Source File</text>
</g>
<!-- file_asset_source -->
<g id="node3" class="node"><title>file_asset_source</title>
<ellipse fill="none" stroke="black" cx="106" cy="-391.74" rx="75.2868" ry="18"/>
<text text-anchor="middle" x="106" y="-388.04" font-family="Times New Roman,serif" font-size="14.00">File Asset Source</text>
</g>
<!-- source_file&#45;&gt;file_asset_source -->
<g id="edge1" class="edge"><title>source_file&#45;&gt;file_asset_source</title>
<path fill="none" stroke="black" d="M74.382,-445.437C79.2647,-437.299 85.1866,-427.429 90.5792,-418.441"/>
<polygon fill="black" stroke="black" points="93.5936,-420.22 95.7374,-409.844 87.5912,-416.619 93.5936,-420.22"/>
</g>
<!-- source_file_metadata -->
<g id="node2" class="node"><title>source_file_metadata</title>
<text text-anchor="middle" x="149" y="-460.04" font-family="Times New Roman,serif" font-size="14.00">.meta</text>
</g>
<!-- source_file_metadata&#45;&gt;file_asset_source -->
<g id="edge5" class="edge"><title>source_file_metadata&#45;&gt;file_asset_source</title>
<path fill="none" stroke="black" d="M138.371,-445.437C133.372,-437.299 127.309,-427.429 121.788,-418.441"/>
<polygon fill="black" stroke="black" points="124.723,-416.533 116.507,-409.844 118.759,-420.197 124.723,-416.533"/>
</g>
<!-- importer_input -->
<g id="node4" class="node"><title>importer_input</title>
<polygon fill="none" stroke="black" points="0.5,-291.24 0.5,-337.24 211.5,-337.24 211.5,-291.24 0.5,-291.24"/>
<text text-anchor="middle" x="57.5" y="-322.04" font-family="Times New Roman,serif" font-size="14.00">Importer Options</text>
<polyline fill="none" stroke="black" points="114.5,-314.24 114.5,-337.24 "/>
<text text-anchor="middle" x="163" y="-322.04" font-family="Times New Roman,serif" font-size="14.00">Importer State</text>
<polyline fill="none" stroke="black" points="0.5,-314.24 211.5,-314.24 "/>
<text text-anchor="middle" x="106" y="-299.04" font-family="Times New Roman,serif" font-size="14.00">Source File</text>
</g>
<!-- file_asset_source&#45;&gt;importer_input -->
<g id="edge2" class="edge"><title>file_asset_source&#45;&gt;importer_input</title>
<path fill="none" stroke="black" d="M106,-373.608C106,-365.915 106,-356.575 106,-347.642"/>
<polygon fill="black" stroke="black" points="109.5,-347.467 106,-337.467 102.5,-347.467 109.5,-347.467"/>
</g>
<!-- importer -->
<g id="node6" class="node"><title>importer</title>
<ellipse fill="none" stroke="black" cx="106" cy="-236.74" rx="42.4939" ry="18"/>
<text text-anchor="middle" x="106" y="-233.04" font-family="Times New Roman,serif" font-size="14.00">Importer</text>
</g>
<!-- importer_input&#45;&gt;importer -->
<g id="edge3" class="edge"><title>importer_input&#45;&gt;importer</title>
<path fill="none" stroke="black" d="M106,-290.996C106,-282.922 106,-273.702 106,-265.229"/>
<polygon fill="black" stroke="black" points="109.5,-265.038 106,-255.038 102.5,-265.038 109.5,-265.038"/>
</g>
<!-- intermediate -->
<g id="node5" class="node"><title>intermediate</title>
<polygon fill="none" stroke="black" points="0,-90.2401 0,-182.24 212,-182.24 212,-90.2401 0,-90.2401"/>
<text text-anchor="middle" x="106" y="-167.04" font-family="Times New Roman,serif" font-size="14.00">Asset Intermediate Format</text>
<polyline fill="none" stroke="black" points="0,-159.24 212,-159.24 "/>
<text text-anchor="middle" x="15.5" y="-144.04" font-family="Times New Roman,serif" font-size="14.00">ID</text>
<polyline fill="none" stroke="black" points="31,-136.24 31,-159.24 "/>
<text text-anchor="middle" x="74" y="-144.04" font-family="Times New Roman,serif" font-size="14.00">Search Tags</text>
<polyline fill="none" stroke="black" points="117,-136.24 117,-159.24 "/>
<text text-anchor="middle" x="164.5" y="-144.04" font-family="Times New Roman,serif" font-size="14.00">Dependencies</text>
<polyline fill="none" stroke="black" points="0,-136.24 212,-136.24 "/>
<text text-anchor="middle" x="106" y="-121.04" font-family="Times New Roman,serif" font-size="14.00">Processing Pipeline</text>
<polyline fill="none" stroke="black" points="0,-113.24 212,-113.24 "/>
<text text-anchor="middle" x="106" y="-98.0401" font-family="Times New Roman,serif" font-size="14.00">Data</text>
</g>
<!-- asset_hub -->
<g id="node7" class="node"><title>asset_hub</title>
<ellipse fill="none" stroke="black" cx="106" cy="-26.8701" rx="53.9813" ry="26.7407"/>
<text text-anchor="middle" x="106" y="-30.6701" font-family="Times New Roman,serif" font-size="14.00">Asset Hub</text>
<text text-anchor="middle" x="106" y="-15.6701" font-family="Times New Roman,serif" font-size="14.00">(indexing)</text>
</g>
<!-- intermediate&#45;&gt;asset_hub -->
<g id="edge8" class="edge"><title>intermediate&#45;&gt;asset_hub</title>
<path fill="none" stroke="black" d="M106,-90.0167C106,-81.3126 106,-72.3039 106,-63.9374"/>
<polygon fill="black" stroke="black" points="109.5,-63.7544 106,-53.7544 102.5,-63.7544 109.5,-63.7544"/>
</g>
<!-- importer&#45;&gt;intermediate -->
<g id="edge4" class="edge"><title>importer&#45;&gt;intermediate</title>
<path fill="none" stroke="black" d="M95.566,-219.031C93.8768,-211.535 92.8856,-202.22 92.5924,-192.588"/>
<polygon fill="black" stroke="black" points="96.092,-192.481 92.5395,-182.499 89.0921,-192.517 96.092,-192.481"/>
</g>
<!-- importer&#45;&gt;intermediate -->
<g id="edge6" class="edge"><title>importer&#45;&gt;intermediate</title>
<path fill="none" stroke="black" d="M106,-218.583C106,-211.216 106,-202.152 106,-192.779"/>
<polygon fill="black" stroke="black" points="109.5,-192.553 106,-182.553 102.5,-192.553 109.5,-192.553"/>
</g>
<!-- importer&#45;&gt;intermediate -->
<g id="edge7" class="edge"><title>importer&#45;&gt;intermediate</title>
<path fill="none" stroke="black" d="M116.434,-219.031C118.123,-211.535 119.114,-202.22 119.408,-192.588"/>
<polygon fill="black" stroke="black" points="122.908,-192.517 119.461,-182.499 115.908,-192.481 122.908,-192.517"/>
</g>
</g>
</svg>
