<?xml version="1.0" encoding="UTF-8" standalone="no"?>
<!DOCTYPE svg PUBLIC "-//W3C//DTD SVG 1.1//EN"
 "http://www.w3.org/Graphics/SVG/1.1/DTD/svg11.dtd">
<!-- Generated by graphviz version 2.38.0 (20140413.2041)
 -->
<!-- Title: import Pages: 1 -->
<svg width="536pt" height="282pt"
 viewBox="0.00 0.00 536.00 282.00" xmlns="http://www.w3.org/2000/svg" xmlns:xlink="http://www.w3.org/1999/xlink">
<g id="graph0" class="graph" transform="scale(1 1) rotate(0) translate(4 278)">
<title>import</title>
<polygon fill="white" stroke="none" points="-4,4 -4,-278 532,-278 532,4 -4,4"/>
<!-- image1 -->
<g id="node1" class="node"><title>image1</title>
<polygon fill="none" stroke="black" points="0,-227.5 0,-273.5 164,-273.5 164,-227.5 0,-227.5"/>
<text text-anchor="middle" x="82" y="-258.3" font-family="Times New Roman,serif" font-size="14.00">Asset Intermediate Format</text>
<polyline fill="none" stroke="black" points="0,-250.5 164,-250.5 "/>
<text text-anchor="middle" x="82" y="-235.3" font-family="Times New Roman,serif" font-size="14.00">Image 1</text>
</g>
<!-- spritesheet_generator -->
<g id="node4" class="node"><title>spritesheet_generator</title>
<ellipse fill="none" stroke="black" cx="264" cy="-173" rx="89.0842" ry="18"/>
<text text-anchor="middle" x="264" y="-169.3" font-family="Times New Roman,serif" font-size="14.00">Spritesheet Generator</text>
</g>
<!-- image1&#45;&gt;spritesheet_generator -->
<g id="edge1" class="edge"><title>image1&#45;&gt;spritesheet_generator</title>
<path fill="none" stroke="black" d="M135.131,-227.459C161.181,-216.653 192.27,-203.756 217.386,-193.337"/>
<polygon fill="black" stroke="black" points="218.8,-196.54 226.696,-189.475 216.118,-190.074 218.8,-196.54"/>
</g>
<!-- image2 -->
<g id="node2" class="node"><title>image2</title>
<polygon fill="none" stroke="black" points="182,-227.5 182,-273.5 346,-273.5 346,-227.5 182,-227.5"/>
<text text-anchor="middle" x="264" y="-258.3" font-family="Times New Roman,serif" font-size="14.00">Asset Intermediate Format</text>
<polyline fill="none" stroke="black" points="182,-250.5 346,-250.5 "/>
<text text-anchor="middle" x="264" y="-235.3" font-family="Times New Roman,serif" font-size="14.00">Image 2</text>
</g>
<!-- image2&#45;&gt;spritesheet_generator -->
<g id="edge2" class="edge"><title>image2&#45;&gt;spritesheet_generator</title>
<path fill="none" stroke="black" d="M264,-227.256C264,-219.182 264,-209.962 264,-201.489"/>
<polygon fill="black" stroke="black" points="267.5,-201.298 264,-191.298 260.5,-201.298 267.5,-201.298"/>
</g>
<!-- image3 -->
<g id="node3" class="node"><title>image3</title>
<polygon fill="none" stroke="black" points="364,-227.5 364,-273.5 528,-273.5 528,-227.5 364,-227.5"/>
<text text-anchor="middle" x="446" y="-258.3" font-family="Times New Roman,serif" font-size="14.00">Asset Intermediate Format</text>
<polyline fill="none" stroke="black" points="364,-250.5 528,-250.5 "/>
<text text-anchor="middle" x="446" y="-235.3" font-family="Times New Roman,serif" font-size="14.00">Image 3</text>
</g>
<!-- image3&#45;&gt;spritesheet_generator -->
<g id="edge3" class="edge"><title>image3&#45;&gt;spritesheet_generator</title>
<path fill="none" stroke="black" d="M392.869,-227.459C366.819,-216.653 335.73,-203.756 310.614,-193.337"/>
<polygon fill="black" stroke="black" points="311.882,-190.074 301.304,-189.475 309.2,-196.54 311.882,-190.074"/>
</g>
<!-- intermediate1 -->
<g id="node5" class="node"><title>intermediate1</title>
<polygon fill="none" stroke="black" points="182,-72.5 182,-118.5 346,-118.5 346,-72.5 182,-72.5"/>
<text text-anchor="middle" x="264" y="-103.3" font-family="Times New Roman,serif" font-size="14.00">Asset Intermediate Format</text>
<polyline fill="none" stroke="black" points="182,-95.5 346,-95.5 "/>
<text text-anchor="middle" x="264" y="-80.3" font-family="Times New Roman,serif" font-size="14.00">Spritesheet</text>
</g>
<!-- spritesheet_generator&#45;&gt;intermediate1 -->
<g id="edge4" class="edge"><title>spritesheet_generator&#45;&gt;intermediate1</title>
<path fill="none" stroke="black" d="M264,-154.868C264,-147.175 264,-137.835 264,-128.902"/>
<polygon fill="black" stroke="black" points="267.5,-128.727 264,-118.727 260.5,-128.727 267.5,-128.727"/>
</g>
<!-- platform_backend -->
<g id="node6" class="node"><title>platform_backend</title>
<ellipse fill="none" stroke="black" cx="264" cy="-18" rx="118.079" ry="18"/>
<text text-anchor="middle" x="264" y="-14.3" font-family="Times New Roman,serif" font-size="14.00">Spritesheet Platform Backend</text>
</g>
<!-- intermediate1&#45;&gt;platform_backend -->
<g id="edge5" class="edge"><title>intermediate1&#45;&gt;platform_backend</title>
<path fill="none" stroke="black" d="M264,-72.2559C264,-64.1817 264,-54.962 264,-46.4888"/>
<polygon fill="black" stroke="black" points="267.5,-46.2975 264,-36.2976 260.5,-46.2976 267.5,-46.2975"/>
</g>
</g>
</svg>
