<?xml version="1.0" encoding="UTF-8" standalone="no"?>
<!DOCTYPE svg PUBLIC "-//W3C//DTD SVG 1.1//EN"
 "http://www.w3.org/Graphics/SVG/1.1/DTD/svg11.dtd">
<!-- Generated by graphviz version 2.38.0 (20140413.2041)
 -->
<!-- Title: import Pages: 1 -->
<svg width="206pt" height="472pt"
 viewBox="0.00 0.00 205.58 472.48" xmlns="http://www.w3.org/2000/svg" xmlns:xlink="http://www.w3.org/1999/xlink">
<g id="graph0" class="graph" transform="scale(1 1) rotate(0) translate(4 468.48)">
<title>import</title>
<polygon fill="white" stroke="none" points="-4,4 -4,-468.48 201.582,-468.48 201.582,4 -4,4"/>
<!-- intermediate -->
<g id="node1" class="node"><title>intermediate</title>
<polygon fill="none" stroke="black" points="16.7912,-417.98 16.7912,-463.98 180.791,-463.98 180.791,-417.98 16.7912,-417.98"/>
<text text-anchor="middle" x="98.7912" y="-448.78" font-family="Times New Roman,serif" font-size="14.00">Asset Intermediate Format</text>
<polyline fill="none" stroke="black" points="16.7912,-440.98 180.791,-440.98 "/>
<text text-anchor="middle" x="98.7912" y="-425.78" font-family="Times New Roman,serif" font-size="14.00">MeshData</text>
</g>
<!-- mesh_indexing -->
<g id="node4" class="node"><title>mesh_indexing</title>
<ellipse fill="none" stroke="black" cx="98.7912" cy="-354.61" rx="96.3333" ry="26.7407"/>
<text text-anchor="middle" x="98.7912" y="-358.41" font-family="Times New Roman,serif" font-size="14.00">Mesh Indexing</text>
<text text-anchor="middle" x="98.7912" y="-343.41" font-family="Times New Roman,serif" font-size="14.00">(creates index buffer)</text>
</g>
<!-- intermediate&#45;&gt;mesh_indexing -->
<g id="edge1" class="edge"><title>intermediate&#45;&gt;mesh_indexing</title>
<path fill="none" stroke="black" d="M98.7912,-417.813C98.7912,-409.812 98.7912,-400.561 98.7912,-391.679"/>
<polygon fill="black" stroke="black" points="102.291,-391.519 98.7912,-381.519 95.2913,-391.519 102.291,-391.519"/>
</g>
<!-- intermediate2 -->
<g id="node2" class="node"><title>intermediate2</title>
<polygon fill="none" stroke="black" points="16.7912,-245.24 16.7912,-291.24 180.791,-291.24 180.791,-245.24 16.7912,-245.24"/>
<text text-anchor="middle" x="98.7912" y="-276.04" font-family="Times New Roman,serif" font-size="14.00">Asset Intermediate Format</text>
<polyline fill="none" stroke="black" points="16.7912,-268.24 180.791,-268.24 "/>
<text text-anchor="middle" x="98.7912" y="-253.04" font-family="Times New Roman,serif" font-size="14.00">MeshData</text>
</g>
<!-- vertex_cache_opt -->
<g id="node5" class="node"><title>vertex_cache_opt</title>
<ellipse fill="none" stroke="black" cx="98.7912" cy="-181.87" rx="65.1077" ry="26.7407"/>
<text text-anchor="middle" x="98.7912" y="-185.67" font-family="Times New Roman,serif" font-size="14.00">Vertex Cache</text>
<text text-anchor="middle" x="98.7912" y="-170.67" font-family="Times New Roman,serif" font-size="14.00">Optimization</text>
</g>
<!-- intermediate2&#45;&gt;vertex_cache_opt -->
<g id="edge3" class="edge"><title>intermediate2&#45;&gt;vertex_cache_opt</title>
<path fill="none" stroke="black" d="M98.7912,-245.073C98.7912,-237.072 98.7912,-227.82 98.7912,-218.939"/>
<polygon fill="black" stroke="black" points="102.291,-218.779 98.7912,-208.779 95.2913,-218.779 102.291,-218.779"/>
</g>
<!-- intermediate3 -->
<g id="node3" class="node"><title>intermediate3</title>
<polygon fill="none" stroke="black" points="16.7912,-72.5 16.7912,-118.5 180.791,-118.5 180.791,-72.5 16.7912,-72.5"/>
<text text-anchor="middle" x="98.7912" y="-103.3" font-family="Times New Roman,serif" font-size="14.00">Asset Intermediate Format</text>
<polyline fill="none" stroke="black" points="16.7912,-95.5 180.791,-95.5 "/>
<text text-anchor="middle" x="98.7912" y="-80.3" font-family="Times New Roman,serif" font-size="14.00">MeshData</text>
</g>
<!-- platform_backend -->
<g id="node6" class="node"><title>platform_backend</title>
<ellipse fill="none" stroke="black" cx="98.7912" cy="-18" rx="98.5829" ry="18"/>
<text text-anchor="middle" x="98.7912" y="-14.3" font-family="Times New Roman,serif" font-size="14.00">Mesh Platform Backend</text>
</g>
<!-- intermediate3&#45;&gt;platform_backend -->
<g id="edge5" class="edge"><title>intermediate3&#45;&gt;platform_backend</title>
<path fill="none" stroke="black" d="M98.7912,-72.2559C98.7912,-64.1817 98.7912,-54.962 98.7912,-46.4888"/>
<polygon fill="black" stroke="black" points="102.291,-46.2975 98.7912,-36.2976 95.2913,-46.2976 102.291,-46.2975"/>
</g>
<!-- mesh_indexing&#45;&gt;intermediate2 -->
<g id="edge2" class="edge"><title>mesh_indexing&#45;&gt;intermediate2</title>
<path fill="none" stroke="black" d="M98.7912,-327.377C98.7912,-319.193 98.7912,-310.068 98.7912,-301.519"/>
<polygon fill="black" stroke="black" points="102.291,-301.478 98.7912,-291.478 95.2913,-301.478 102.291,-301.478"/>
</g>
<!-- vertex_cache_opt&#45;&gt;intermediate3 -->
<g id="edge4" class="edge"><title>vertex_cache_opt&#45;&gt;intermediate3</title>
<path fill="none" stroke="black" d="M98.7912,-154.637C98.7912,-146.452 98.7912,-137.328 98.7912,-128.779"/>
<polygon fill="black" stroke="black" points="102.291,-128.738 98.7912,-118.738 95.2913,-128.738 102.291,-128.738"/>
</g>
</g>
</svg>
